<?xml version="1.0" standalone="no"?>
<!DOCTYPE svg PUBLIC "-//W3C//DTD SVG 20010904//EN"
 "http://www.w3.org/TR/2001/REC-SVG-20010904/DTD/svg10.dtd">
<svg version="1.0" xmlns="http://www.w3.org/2000/svg"
 width="632.000000pt" height="421.000000pt" viewBox="0 0 632.000000 421.000000"
 preserveAspectRatio="xMidYMid meet">

<g transform="translate(0.000000,421.000000) scale(0.100000,-0.100000)"
fill="#000000" stroke="none">
<path d="M1386 4151 c-4 -6 -3 -19 3 -28 9 -17 10 -17 17 0 8 21 -10 45 -20
28z"/>
<path d="M5252 3995 c-16 -14 -33 -36 -36 -50 -8 -31 -21 -31 -97 0 l-60 24 3
-22 3 -22 -520 -5 -520 -5 -2 -542 c-2 -345 1 -543 7 -543 6 0 10 197 10 535
l0 535 393 1 c681 1 632 3 629 -21 -2 -18 2 -20 20 -14 13 3 28 10 33 15 6 4
30 12 53 17 36 9 42 8 47 -9 4 -11 18 -33 32 -49 20 -25 32 -30 68 -30 37 0
47 5 75 37 28 31 31 42 27 76 -12 88 -101 126 -165 72z m127 -22 c32 -37 14
-40 -60 -13 -59 22 -65 34 -24 42 35 8 59 -1 84 -29z m-63 -27 l59 -24 -58
-27 c-32 -15 -64 -24 -72 -21 -22 8 -18 96 4 96 4 0 34 -11 67 -24z m84 -52
c0 -8 -13 -29 -29 -45 -33 -32 -80 -39 -101 -14 -10 12 -3 19 51 45 74 35 79
36 79 14z"/>
<path d="M440 3795 c0 -25 5 -45 10 -45 6 0 10 11 10 25 0 34 28 32 33 -2 4
-26 4 -26 6 5 1 29 -6 37 -31 33 -5 0 -8 6 -8 14 0 8 -4 15 -10 15 -5 0 -10
-20 -10 -45z"/>
<path d="M67 3823 c-7 -11 4 -73 13 -73 8 0 7 66 -2 75 -3 4 -8 3 -11 -2z"/>
<path d="M4 3808 c-5 -8 -2 -9 9 -5 10 3 17 2 17 -3 0 -6 -7 -10 -15 -10 -8 0
-15 -9 -15 -20 0 -13 7 -20 19 -20 26 0 34 15 27 46 -7 25 -30 32 -42 12z"/>
<path d="M111 3782 c2 -30 3 -32 6 -9 2 15 10 27 18 27 8 0 16 -12 18 -27 l4
-28 2 28 c0 16 7 27 15 27 8 0 17 -12 19 -27 4 -21 4 -19 3 7 -1 34 -2 35 -43
37 l-43 3 1 -38z"/>
<path d="M230 3805 c-25 -30 18 -72 45 -44 9 10 10 21 4 37 -10 25 -31 29 -49
7z m38 -22 c-4 -22 -22 -20 -26 1 -2 10 3 16 13 16 10 0 15 -7 13 -17z"/>
<path d="M304 3808 c-4 -6 0 -16 9 -23 21 -15 22 -26 2 -19 -8 4 -15 1 -15 -5
0 -15 37 -14 46 1 4 6 -1 17 -11 25 -17 12 -18 13 -1 13 9 0 14 5 11 10 -8 14
-32 13 -41 -2z"/>
<path d="M369 3818 c-5 -25 -3 -88 3 -88 4 0 8 5 8 10 0 6 8 10 19 10 22 0 35
38 19 57 -9 11 -47 19 -49 11z m41 -38 c0 -11 -7 -20 -15 -20 -8 0 -15 9 -15
20 0 11 7 20 15 20 8 0 15 -9 15 -20z"/>
<path d="M532 3808 c-16 -16 -15 -43 1 -56 16 -14 40 0 44 27 4 25 -28 46 -45
29z m28 -38 c0 -5 -4 -10 -10 -10 -5 0 -10 5 -10 10 0 6 5 10 10 10 6 0 10 -4
10 -10z"/>
<path d="M680 3801 c-14 -28 -13 -39 9 -50 14 -8 22 -7 32 6 12 14 11 15 -9 9
-18 -6 -22 -4 -22 14 0 18 4 20 22 14 20 -6 21 -5 9 10 -18 21 -28 20 -41 -3z"/>
<path d="M590 3780 c0 -16 5 -30 10 -30 6 0 10 11 10 24 0 13 6 27 13 29 6 3
2 6 -10 6 -19 1 -23 -4 -23 -29z"/>
<path d="M640 3780 c0 -16 5 -30 10 -30 6 0 10 14 10 30 0 17 -4 30 -10 30 -5
0 -10 -13 -10 -30z"/>
<path d="M784 3802 c18 -8 18 -9 3 -15 -18 -7 -23 -32 -8 -41 20 -13 42 7 39
33 -2 19 -9 27 -28 28 -21 2 -22 1 -6 -5z m16 -32 c0 -5 -5 -10 -11 -10 -5 0
-7 5 -4 10 3 6 8 10 11 10 2 0 4 -4 4 -10z"/>
<path d="M842 3780 c0 -19 2 -27 5 -17 2 9 2 25 0 35 -3 9 -5 1 -5 -18z"/>
<path d="M879 3808 c-6 -24 -5 -58 2 -58 5 0 9 8 9 18 0 10 5 23 12 30 9 9 8
12 -5 12 -9 0 -17 -1 -18 -2z"/>
<path d="M5285 3751 c-26 -11 -51 -40 -64 -74 -13 -33 -24 -34 -95 -2 l-56 25
6 -25 6 -25 -373 -1 c-206 -1 -385 -1 -399 0 -54 3 -52 28 -53 -590 l-2 -573
-37 -1 -38 -2 0 44 c0 41 -1 43 -31 43 -29 0 -31 2 -25 28 4 15 16 44 27 65
22 44 23 50 7 44 -27 -9 -44 11 -41 51 1 34 -2 41 -20 46 -29 8 -338 7 -404 0
l-53 -7 0 -968 c0 -533 -4 -969 -8 -969 -10 0 -88 24 -114 35 -23 9 -25 -17
-3 -35 13 -11 13 -14 0 -27 -8 -8 -15 -22 -15 -30 0 -15 2 -15 18 -1 16 15 56
29 115 42 l27 6 0 965 0 965 23 5 c12 3 110 4 217 3 l195 -3 3 -37 c3 -33 0
-38 -18 -38 -13 0 -20 -5 -18 -12 3 -7 18 -13 35 -13 17 0 35 -4 40 -9 5 -5 3
-6 -4 -2 -7 4 -13 3 -13 -3 0 -5 -9 -8 -20 -6 -22 4 -28 -13 -7 -20 6 -3 12
-20 11 -38 -1 -28 -4 -32 -32 -35 l-32 -3 0 85 c0 51 -4 86 -10 86 -6 0 -10
-35 -10 -85 l0 -85 -70 0 c-82 0 -73 30 -74 -235 l-1 -180 -41 -9 c-40 -9 -42
-11 -48 -55 -3 -25 -13 -59 -21 -75 -20 -38 -19 -45 5 -39 19 5 20 0 20 -135
l0 -141 43 -3 42 -3 2 -205 c1 -113 2 -219 2 -237 l1 -32 108 -3 107 -3 0
-145 0 -145 233 -3 c187 -2 232 -5 232 -16 0 -7 -7 -19 -16 -27 -10 -8 -14
-22 -10 -40 3 -16 0 -31 -7 -37 -7 -6 -106 -9 -252 -7 l-240 3 -3 136 c-3 140
-2 142 37 136 8 -1 11 4 8 12 -3 7 -15 37 -28 66 l-22 54 -12 -29 c-9 -21 -9
-32 -1 -42 8 -11 8 -13 0 -8 -6 3 -16 -5 -23 -19 -15 -33 -14 -35 7 -32 16 3
17 -10 18 -147 l0 -150 200 2 c109 1 232 2 272 3 l72 0 0 49 0 48 51 22 c60
24 91 27 83 7 -6 -15 41 -76 59 -76 6 0 -2 13 -17 29 -16 16 -26 37 -24 48 3
16 16 18 153 21 82 1 151 4 153 6 2 3 -42 19 -97 36 -56 18 -101 35 -101 40 0
4 43 13 95 20 52 7 95 16 95 20 0 4 -37 19 -83 34 -125 41 -124 44 14 45 l124
1 -3 -123 c-3 -109 -6 -125 -25 -146 -50 -55 -150 -75 -229 -47 l-37 13 -5
-46 c-3 -25 -8 -86 -10 -136 -4 -71 -3 -81 4 -45 5 25 12 80 16 123 l6 78 31
-6 c70 -14 66 -8 69 -113 l3 -97 214 -2 c129 -1 217 -6 220 -12 4 -6 24 -4 54
7 l47 17 1 285 c0 157 2 556 2 887 1 394 5 603 12 604 6 1 13 1 18 0 12 -2 8
11 -10 31 -16 18 -16 22 -1 48 15 27 15 28 -3 33 -17 5 -19 15 -19 86 0 45 -3
82 -7 82 -5 1 -71 2 -148 3 -77 1 -145 4 -151 8 -5 4 -27 3 -47 -2 l-37 -8 -1
132 c-1 188 2 400 6 405 2 2 19 -2 37 -8 22 -8 34 -8 36 -1 2 5 28 10 58 10
l55 0 -3 -127 c-3 -115 -5 -128 -20 -127 -22 2 -23 -10 -1 -42 15 -24 15 -27
0 -54 -22 -36 -21 -40 3 -40 18 0 20 -7 20 -60 0 -33 4 -60 8 -60 4 0 6 16 4
35 -6 47 5 85 24 85 13 0 11 5 -6 30 l-21 30 20 29 c25 34 26 41 7 41 -21 0
-23 12 -18 146 2 73 -1 124 -7 128 -5 3 -52 7 -104 8 l-95 1 -6 32 c-8 39 -61
91 -103 100 -30 6 -31 8 -38 76 l-7 69 -149 0 c-142 0 -149 1 -149 20 0 25 0
25 -63 -1 -29 -11 -60 -24 -70 -27 -16 -7 -17 -64 -20 -1067 l-2 -1060 -45 0
c-37 0 -45 3 -44 18 2 21 -4 21 -45 1 -18 -9 -50 -18 -72 -21 l-39 -6 0 226 0
226 -67 3 -68 3 -3 48 c-3 45 -2 47 23 47 l25 0 -19 38 c-10 20 -22 52 -26 70
l-7 32 71 0 71 0 2 213 3 212 45 3 45 3 0 577 0 577 235 5 c129 3 311 4 403 2
161 -3 168 -4 162 -22 -8 -25 -7 -25 46 0 63 28 91 26 111 -9 39 -69 113 -78
162 -20 44 51 31 135 -23 164 -33 16 -55 18 -86 6z m93 -31 c12 -12 22 -29 22
-40 0 -20 9 -22 -129 26 -11 3 -11 7 -1 19 18 22 82 19 108 -5z m-49 -50 c22
-6 41 -14 41 -19 0 -4 -25 -18 -55 -30 -61 -26 -85 -19 -85 24 0 42 9 55 35
45 12 -5 41 -14 64 -20z m-224 -20 c3 -5 1 -10 -4 -10 -6 0 -11 5 -11 10 0 6
2 10 4 10 3 0 8 -4 11 -10z m298 -30 c-9 -34 -53 -61 -92 -58 -19 2 -36 8 -38
13 -3 10 116 73 129 68 3 -2 4 -12 1 -23z m-881 -170 c65 -24 61 -24 55 0 -5
20 -2 20 141 18 l147 -3 3 -57 c2 -56 2 -56 -33 -68 -19 -6 -46 -25 -61 -43
l-26 -31 4 -522 3 -523 -31 -33 c-27 -28 -31 -40 -30 -78 1 -25 -1 -56 -4 -69
-6 -23 -11 -25 -73 -26 -36 0 -69 -3 -71 -6 -11 -11 -7 -1014 4 -1017 6 -2 11
161 12 500 l3 503 63 0 63 0 3 -66 c1 -51 8 -76 30 -114 l29 -48 0 -240 -1
-240 -30 -26 -30 -26 2 -148 c1 -167 5 -162 -84 -127 -50 20 -50 20 -50 0 0
-19 -7 -20 -225 -20 l-225 0 0 140 0 140 35 0 35 0 0 53 c0 30 2 56 5 59 6 6
101 -24 136 -42 20 -11 21 -10 17 14 -5 26 -4 26 54 26 l58 0 0 548 c-1 1419
0 1592 10 1592 5 0 33 -9 62 -20z m400 -120 c57 -16 88 -60 88 -126 0 -54 0
-54 -32 -55 -59 -3 -202 2 -210 7 -14 9 -8 94 8 120 16 23 77 63 99 64 6 0 27
-5 47 -10z m88 -224 c0 -31 -4 -32 -132 -35 l-108 -3 0 31 0 31 120 0 c120 0
120 0 120 -24z m0 -70 c0 -21 -6 -24 -47 -29 -27 -3 -82 -5 -123 -4 -67 2 -75
4 -76 22 0 11 1 23 3 28 2 4 58 7 124 7 119 0 119 0 119 -24z m0 -76 l0 -30
-104 0 c-57 0 -111 -3 -120 -6 -13 -5 -16 1 -16 30 l0 36 120 0 120 0 0 -30z
m229 -61 c-12 -23 -25 -24 -33 -3 -9 22 1 33 24 27 16 -4 18 -9 9 -24z m-229
-19 l0 -30 -120 0 -120 0 0 30 0 30 120 0 120 0 0 -30z m4 -49 c4 -5 2 -19 -2
-31 -7 -20 -16 -22 -125 -27 l-117 -5 0 31 c0 30 1 30 58 34 121 7 181 7 186
-2z m221 -1 c3 -6 -1 -13 -10 -16 -19 -8 -30 0 -20 15 8 14 22 14 30 1z m-225
-95 l0 -25 -120 0 -120 0 0 25 0 25 120 0 120 0 0 -25z m8 -72 l-3 -27 -105
-2 c-128 -2 -140 0 -140 32 l0 24 126 0 125 0 -3 -27z m62 -38 c27 -14 30 -14
30 0 0 13 11 15 58 13 l57 -3 -3 -410 c-3 -450 2 -421 -59 -401 -17 5 -23 3
-23 -7 0 -9 -11 -13 -36 -10 -45 3 -48 6 -35 31 7 12 11 81 11 166 0 137 -1
147 -22 172 -21 23 -23 39 -28 162 -6 172 -1 302 11 302 6 0 23 -7 39 -15z
m330 -66 c0 -77 -1 -81 -21 -76 -13 3 -19 1 -16 -6 3 -7 8 -11 13 -10 5 1 16
3 24 5 8 2 15 -4 15 -12 0 -8 -6 -14 -13 -12 -8 1 -11 -2 -7 -8 4 -7 -3 -22
-16 -36 l-22 -24 21 0 c12 0 21 3 21 8 -4 27 1 34 17 21 14 -11 14 -13 0 -21
-14 -8 -16 -102 -16 -894 0 -968 4 -912 -58 -880 -27 14 -31 14 -34 0 -3 -13
-33 -15 -213 -16 l-210 -1 -3 91 -3 90 33 7 c51 11 103 41 132 75 25 30 26 37
26 150 l0 119 108 -1 107 0 3 86 c3 80 4 86 24 86 l21 0 -21 23 c-27 29 -27
39 -1 63 l21 19 -24 5 c-21 6 -23 12 -23 63 l1 57 -63 0 c-57 0 -63 2 -63 21
0 13 -5 19 -12 16 -72 -27 -118 -40 -124 -35 -7 8 -13 225 -6 246 3 8 25 12
63 12 51 0 58 -2 52 -17 -6 -15 -4 -16 8 -6 8 6 30 15 49 20 l35 9 3 422 2
422 85 0 85 0 0 -81z m-400 31 l0 -29 -120 0 -120 0 0 29 0 30 120 0 120 0 0
-30z m-1092 -291 c-2 -154 -7 -244 -13 -244 -11 0 -20 468 -10 494 4 9 9 11
16 4 6 -6 8 -103 7 -254z m52 6 c0 -217 -2 -255 -15 -255 -12 0 -15 37 -17
238 -3 264 -3 272 18 272 12 0 14 -41 14 -255z m110 0 l0 -255 -45 0 -45 0 -1
128 c-1 265 -1 357 0 370 1 8 17 12 46 12 l45 0 0 -255z m41 188 c1 -124 1
-408 0 -425 -1 -10 -5 -18 -11 -18 -6 0 -10 92 -10 255 0 163 4 255 10 255 6
0 10 -30 11 -67z m48 -189 c0 -207 -2 -244 -14 -244 -13 0 -15 38 -15 250 0
213 2 249 14 244 12 -5 15 -47 15 -250z m841 216 l0 -30 -120 0 -120 0 0 30 0
30 120 0 120 0 0 -30z m2 -75 c-2 -11 -9 -23 -14 -26 -6 -4 -59 -6 -119 -6
l-109 0 0 29 0 29 123 -3 c116 -3 122 -4 119 -23z m-2 -75 l0 -30 -120 0 -120
0 0 30 0 30 120 0 120 0 0 -30z m-89 -50 l89 0 0 -30 0 -30 -120 0 -120 0 0
29 c0 30 19 43 48 35 8 -2 54 -4 103 -4z m89 -94 c0 -13 14 -40 30 -61 l31
-38 -3 -131 c-3 -123 -4 -131 -23 -131 -11 0 -23 4 -26 8 -4 5 -4 60 -2 122
l4 113 -30 21 c-42 30 -111 38 -165 17 -70 -27 -75 -37 -78 -166 -2 -94 -6
-115 -18 -115 -13 0 -15 24 -18 145 l-3 146 31 29 c16 16 30 37 30 47 0 16 11
18 120 18 119 0 120 0 120 -24z m-44 -101 c17 -13 10 -14 -76 -14 -86 0 -93 1
-76 14 12 9 42 15 76 15 34 0 64 -6 76 -15z m-1086 -40 c0 -43 1 -45 30 -45
27 0 30 -3 32 -35 0 -19 1 -41 2 -47 1 -8 -9 -12 -21 -11 -28 3 -28 2 -4 -46
11 -21 21 -51 23 -67 3 -26 0 -29 -29 -32 -23 -2 -33 -9 -34 -20 -1 -9 -2 -28
-2 -42 -2 -21 -8 -26 -34 -28 l-33 -3 0 136 c0 132 1 136 20 130 25 -8 25 -7
0 46 -11 24 -20 59 -20 77 0 30 2 32 35 32 35 0 35 0 35 -45z m1028 5 l92 0 0
-109 c0 -63 -4 -112 -10 -116 -6 -4 -10 28 -10 89 0 122 -18 127 -22 6 -4
-117 -23 -115 -23 3 0 48 -3 87 -7 87 -5 0 -8 -40 -8 -89 0 -72 -3 -90 -16
-95 -29 -11 -34 4 -34 101 0 53 -3 93 -7 89 -4 -3 -6 -46 -5 -95 1 -69 -2 -90
-13 -95 -22 -8 -26 7 -24 94 1 44 -1 83 -5 87 -3 3 -6 -34 -6 -84 0 -94 -3
-105 -26 -96 -11 4 -14 31 -14 120 0 115 0 115 23 109 12 -3 64 -6 115 -6z
m-878 -74 c0 -14 -4 -28 -10 -31 -5 -3 -10 -15 -10 -26 0 -14 -7 -19 -25 -19
-23 0 -25 4 -25 43 0 51 4 57 42 57 23 0 28 -4 28 -24z m-70 -112 c0 -2 -7 -4
-15 -4 -8 0 -15 4 -15 10 0 5 7 7 15 4 8 -4 15 -8 15 -10z m70 -48 c0 -45 -10
-56 -52 -56 -16 0 -19 5 -14 25 14 55 26 75 46 75 17 0 20 -6 20 -44z m1019
-28 c-26 -48 -48 -59 -69 -33 -7 8 -18 15 -24 15 -6 -1 4 -14 23 -30 57 -49
41 -60 -94 -59 -130 1 -142 10 -82 60 24 21 28 28 15 29 -10 0 -18 -4 -18 -9
0 -22 -35 -21 -52 1 -35 46 -29 48 147 48 l166 0 -12 -22z m-1131 -324 c-2
-171 -7 -269 -13 -269 -11 0 -20 518 -10 544 4 9 9 11 15 5 7 -7 9 -113 8
-280z m50 9 c-2 -177 -7 -278 -13 -278 -6 0 -11 101 -13 278 -2 243 0 277 13
277 13 0 15 -34 13 -277z m110 0 l-3 -278 -42 -3 -42 -3 -3 271 c-2 148 -1
275 0 280 2 6 24 10 48 10 l44 0 -2 -277z m49 11 c3 -257 0 -294 -18 -294 -15
0 -12 347 4 353 9 4 9 7 -1 15 -9 6 -15 38 -17 92 -4 87 -1 104 18 97 9 -3 13
-77 14 -263z m43 1 c0 -247 -3 -285 -21 -285 -10 0 -13 533 -3 543 20 19 24
-28 24 -258z m838 158 c3 -23 2 -23 -117 -23 l-121 0 0 25 0 26 118 -3 c113
-3 117 -4 120 -25z m2 -73 l0 -30 -120 1 -120 2 0 28 0 29 120 0 120 0 0 -30z
m-2 -72 l3 -28 -120 0 -121 0 0 30 0 31 118 -3 117 -3 3 -27z m102 -48 c28
-11 53 -20 55 -20 3 0 5 9 5 20 0 18 7 20 53 20 l54 0 -2 -47 c-2 -41 -6 -48
-26 -53 -16 -4 -20 -8 -12 -13 7 -4 24 -5 39 -1 20 5 25 4 22 -7 -3 -8 -13
-13 -22 -12 -11 0 -15 -4 -12 -13 3 -8 -3 -23 -14 -34 -26 -26 -25 -30 5 -30
26 0 26 0 23 -77 l-3 -77 -97 -2 -98 -2 0 51 c0 42 -5 56 -27 79 -25 26 -27
33 -27 133 -1 120 -2 119 84 85z m-122 1 c17 -1 22 -7 22 -26 l0 -25 -120 0
c-119 0 -120 0 -120 23 0 13 2 26 4 28 4 4 135 4 214 0z m22 -101 c0 -28 -3
-30 -37 -31 -21 0 -74 -1 -118 -2 l-80 -2 -3 33 -3 32 120 0 121 0 0 -30z m0
-72 c0 -12 11 -33 24 -47 17 -19 25 -40 28 -76 l3 -50 -160 -5 c-88 -3 -153
-8 -145 -12 8 -3 57 -21 108 -39 51 -17 91 -33 89 -35 -4 -4 -47 -11 -120 -19
-37 -4 -69 -11 -72 -14 -2 -4 40 -24 93 -44 l97 -36 -122 -1 -123 0 0 143 0
143 30 29 c19 19 30 39 30 57 l0 28 120 0 c117 0 120 -1 120 -22z m288 4 c2
-7 -5 -12 -17 -12 -14 0 -19 5 -14 15 6 17 25 15 31 -3z"/>
<path d="M4550 2890 c0 -5 14 -7 33 -3 45 8 47 13 4 13 -20 0 -37 -4 -37 -10z"/>
<path d="M4555 2862 c-3 -3 -5 -12 -5 -20 0 -10 4 -12 13 -4 6 5 21 12 32 14
17 3 15 5 -7 10 -15 3 -30 3 -33 0z"/>
<path d="M4565 2810 c3 -5 15 -10 26 -10 10 0 19 5 19 10 0 6 -12 10 -26 10
-14 0 -23 -4 -19 -10z"/>
<path d="M4545 2782 c-10 -11 8 -22 35 -22 42 0 46 17 5 22 -20 2 -38 2 -40 0z"/>
<path d="M4553 2725 c-3 -9 -2 -19 1 -22 12 -13 54 -14 62 -2 5 9 2 10 -9 6
-10 -3 -17 -2 -17 3 0 5 -8 7 -17 4 -17 -5 -17 -5 0 6 9 6 22 8 27 5 6 -3 10
-1 10 4 0 17 -50 13 -57 -4z"/>
<path d="M4530 2622 c0 -15 13 -22 24 -13 6 5 22 11 36 14 16 3 10 5 -17 6
-24 0 -43 -3 -43 -7z"/>
<path d="M4586 2543 c-11 -12 -6 -22 8 -17 8 3 17 1 21 -5 7 -13 25 -15 25 -3
0 12 -46 32 -54 25z"/>
<path d="M4553 2483 c23 -4 26 -7 16 -19 -17 -20 2 -17 31 6 l25 20 -50 -2
c-30 0 -39 -3 -22 -5z"/>
<path d="M4537 2443 c-16 -16 -4 -23 36 -22 34 2 36 3 12 6 -16 3 -33 9 -36
14 -3 5 -8 6 -12 2z"/>
<path d="M591 3653 c-1 -25 0 -25 -175 -27 -60 -1 -70 2 -77 19 -7 17 -8 17
-8 3 -1 -16 -16 -18 -166 -18 -101 0 -165 -4 -165 -10 0 -6 65 -11 162 -12
l162 -3 7 -25 7 -25 1 28 c1 26 3 27 56 27 52 0 56 -2 80 -37 29 -43 31 -61
10 -69 -8 -4 -12 -10 -9 -15 6 -10 83 40 84 54 0 11 -18 9 -25 -3 -9 -14 -32
5 -51 42 l-15 28 62 0 c55 0 61 -2 56 -19 -2 -10 -1 -25 4 -32 6 -10 9 -4 9
19 0 31 2 32 40 32 l40 0 0 -165 c0 -91 -1 -168 -2 -172 -2 -5 -11 -7 -20 -6
-22 3 -23 -10 -3 -27 9 -7 13 -15 11 -18 -3 -2 1 -20 9 -39 28 -66 38 -63
-214 -63 -126 0 -236 -3 -245 -6 -14 -5 -16 -27 -16 -140 0 -103 3 -135 14
-141 10 -6 15 -37 18 -111 3 -95 2 -103 -14 -99 -10 3 -18 3 -18 1 0 -9 25
-49 35 -56 6 -5 6 -8 -2 -8 -8 0 -9 -9 -3 -31 5 -18 11 -33 13 -36 2 -2 13 20
25 49 11 29 23 60 26 69 5 12 1 15 -16 15 -22 -1 -23 2 -26 102 l-3 102 251 0
250 0 0 135 c0 135 0 136 -25 145 -14 5 -25 14 -25 20 0 6 11 38 25 72 14 34
25 63 25 65 0 2 -11 1 -25 -3 l-25 -6 0 180 c0 198 2 192 -65 192 -27 0 -34 5
-38 23 l-4 22 -2 -22z m137 -680 l-3 -127 -250 2 -250 2 -3 125 -3 125 256 0
256 0 -3 -127z m-468 -389 c0 -8 -4 -12 -10 -9 -5 3 -10 10 -10 16 0 5 5 9 10
9 6 0 10 -7 10 -16z"/>
<path d="M251 3503 c1 -26 3 -40 6 -30 3 10 16 22 30 28 33 12 27 43 -10 47
-26 3 -27 2 -26 -45z m39 17 c0 -5 -4 -10 -9 -10 -6 0 -13 5 -16 10 -3 6 1 10
9 10 9 0 16 -4 16 -10z"/>
<path d="M329 3548 c-1 -2 -3 -22 -3 -45 -2 -45 8 -58 17 -22 3 12 10 18 16
15 5 -4 12 -2 16 4 3 5 -3 10 -14 10 -12 0 -21 5 -21 10 0 6 6 10 14 10 8 0
18 5 21 10 4 6 -5 10 -19 10 -14 0 -27 -1 -27 -2z"/>
<path d="M400 3466 c0 -14 5 -28 10 -31 6 -4 10 7 10 24 0 17 -4 31 -10 31 -5
0 -10 -11 -10 -24z"/>
<path d="M5090 3335 c0 -27 2 -46 4 -44 8 8 10 78 3 85 -4 4 -7 -14 -7 -41z"/>
<path d="M5267 3374 c-11 -11 -8 -84 3 -84 6 0 10 12 10 28 l1 27 20 -27 c28
-37 34 -35 37 12 1 22 -2 40 -8 40 -5 0 -10 -10 -10 -22 0 -22 -1 -22 -23 5
-12 16 -26 25 -30 21z"/>
<path d="M5125 3338 c-4 -10 -4 -26 0 -35 8 -17 8 -17 12 0 3 9 3 25 0 35 -4
16 -4 16 -12 0z"/>
<path d="M5160 3335 c-15 -18 -7 -43 17 -52 10 -4 21 -11 25 -17 4 -6 8 10 8
37 0 39 -3 47 -19 47 -10 0 -24 -7 -31 -15z m35 -18 c0 -26 -20 -25 -23 2 -3
16 1 22 10 19 7 -3 13 -12 13 -21z"/>
<path d="M5369 3311 c9 -6 10 -11 2 -15 -15 -10 -14 -36 2 -36 6 0 13 14 14
30 2 23 -2 30 -15 30 -13 0 -14 -2 -3 -9z"/>
<path d="M1872 3240 c-23 -16 -45 -30 -48 -30 -4 0 -22 11 -40 25 -40 31 -52
31 -56 3 -3 -23 -4 -23 -199 -26 l-197 -2 -8 -38 c-4 -20 -8 -41 -8 -47 -1 -5
-7 -16 -14 -24 -10 -11 -10 -16 5 -27 17 -14 17 -14 -1 -12 -10 2 -21 -2 -23
-9 -3 -7 3 -9 16 -6 19 5 21 1 21 -39 0 -41 -3 -47 -37 -69 -21 -13 -43 -35
-50 -49 -15 -29 -17 -120 -3 -120 6 0 6 -10 -1 -27 -6 -16 -9 -185 -9 -447 0
-232 1 -440 0 -463 l0 -43 -69 0 c-39 0 -72 4 -76 9 -3 6 4 36 15 68 24 69 24
63 0 63 -19 0 -20 7 -20 90 0 101 10 90 -85 95 -71 4 -75 5 -75 20 0 9 9 15
25 15 14 0 25 5 25 10 0 6 -11 10 -25 10 -18 0 -25 5 -25 20 0 18 7 20 65 20
53 0 63 -3 59 -15 -7 -17 11 -21 21 -5 3 6 17 10 30 10 41 0 36 16 -7 30 -30
9 -43 9 -46 1 -2 -6 -29 -11 -63 -11 -59 0 -59 0 -59 30 0 21 5 30 16 30 8 0
13 4 10 9 -3 5 -78 8 -165 8 -88 0 -158 -4 -155 -9 3 -4 14 -8 25 -8 16 0 19
-7 19 -55 0 -54 0 -55 -30 -55 -16 0 -30 -4 -30 -10 0 -5 14 -10 30 -10 l31 0
-2 -125 -2 -126 -31 7 c-16 3 -50 15 -74 25 -38 17 -43 17 -38 3 3 -8 6 -18 6
-20 0 -2 7 -4 16 -4 8 0 13 -4 10 -8 -2 -4 -17 -7 -33 -6 -15 1 -34 3 -40 3
-10 1 -13 33 -13 126 0 77 -4 125 -10 125 -6 0 -10 -52 -10 -135 l0 -135 63
-1 c40 -1 53 -3 38 -8 -14 -4 -26 -12 -28 -18 -3 -7 20 -4 63 9 73 22 87 17
82 -28 -2 -20 -10 -30 -28 -35 l-25 -6 24 -4 c14 -2 26 -10 29 -16 5 -16 -32
-17 -60 -2 -16 9 -23 8 -29 -3 -6 -11 -27 -14 -89 -13 -45 1 -83 -2 -86 -7 -3
-4 35 -8 85 -8 50 0 91 -4 93 -10 2 -6 17 -5 42 2 36 11 40 11 60 -14 28 -34
55 -47 111 -52 43 -3 50 0 86 34 26 25 39 46 39 63 0 15 3 26 8 26 4 -1 16 0
27 1 15 2 12 4 -10 10 -28 7 -27 8 13 9 l42 1 0 -45 c0 -44 -1 -45 -31 -45
-30 0 -30 -1 -27 -47 3 -41 6 -48 28 -53 20 -5 26 -13 28 -39 2 -19 -1 -37 -7
-40 -7 -5 -7 -20 1 -49 10 -41 28 -58 28 -27 0 9 7 29 15 45 15 28 14 30 -5
30 -16 0 -20 7 -20 35 0 29 5 37 25 45 21 8 25 16 25 50 0 33 -4 42 -22 49
-19 7 -23 16 -23 57 l0 49 -47 3 -48 3 0 134 0 133 68 -1 67 -2 3 -82 c3 -78
2 -83 -18 -83 -24 0 -24 0 -5 -36 8 -16 18 -45 21 -64 10 -55 19 -60 100 -60
l74 0 0 -29 c0 -33 41 -88 75 -101 20 -8 22 -14 17 -62 -3 -29 -9 -56 -14 -59
-6 -4 -6 -14 1 -27 6 -11 11 -30 11 -41 0 -17 -6 -21 -35 -21 -40 0 -42 -6
-16 -37 24 -28 35 -30 21 -3 -10 18 -8 20 25 20 40 0 39 0 23 -35 -7 -15 -17
-24 -25 -20 -9 3 -13 -1 -11 -13 1 -9 -10 -35 -25 -57 -35 -51 -34 -65 3 -65
34 0 38 -13 16 -56 -13 -24 -13 -29 0 -38 12 -9 14 -31 12 -101 l-3 -90 -278
-3 c-164 -1 -276 -6 -272 -11 3 -6 128 -10 284 -10 321 -1 287 -16 289 123 0
56 5 92 12 96 9 6 9 13 1 28 -19 35 -13 61 14 68 l26 6 -20 34 c-23 38 -18 41
27 18 36 -17 52 -12 52 17 0 13 7 19 24 19 13 0 26 -5 28 -11 3 -9 9 -9 25 0
39 20 53 14 53 -24 0 -22 6 -38 15 -41 8 -4 15 -19 15 -34 0 -25 -4 -29 -32
-33 -18 -2 18 -5 80 -5 61 -1 112 2 112 6 0 5 -10 8 -22 8 -17 -1 -24 5 -26
23 -2 13 1 28 7 34 6 6 11 48 11 94 l0 83 -30 0 -30 0 0 679 c0 374 -3 686 -6
695 -5 12 -20 16 -60 16 -43 0 -54 3 -54 16 0 12 -6 15 -22 9 -13 -4 -35 -9
-50 -12 -26 -5 -28 -3 -28 30 0 42 -37 92 -75 101 -22 6 -25 12 -25 52 0 44 1
46 25 40 30 -8 30 -6 6 42 -10 20 -22 52 -26 70 l-7 32 181 2 c100 0 187 1
194 2 7 1 13 -13 15 -31 4 -38 5 -38 37 -17 28 18 32 9 10 -20 -21 -28 -19
-36 10 -36 23 0 25 -3 25 -50 0 -27 0 -53 1 -57 0 -5 -10 -10 -22 -13 -21 -5
-21 -6 -5 -23 10 -9 15 -21 12 -26 -3 -5 0 -13 7 -19 20 -17 14 -66 -9 -70
-10 -2 -31 -16 -46 -30 l-28 -26 0 -543 c0 -598 -2 -576 61 -609 27 -14 29
-18 29 -79 0 -54 -3 -64 -19 -67 -16 -3 -17 -7 -8 -28 6 -14 16 -47 22 -75
l10 -50 113 -3 c112 -3 112 -3 112 -27 0 -14 2 -25 3 -25 9 0 74 34 88 47 14
12 22 10 60 -12 51 -29 69 -31 69 -10 0 17 13 19 160 20 l105 0 5 95 c4 83 7
95 23 92 21 -4 21 -7 -3 63 -24 70 -25 95 -4 95 9 0 31 15 50 34 l35 35 -2
460 c-1 454 -1 461 -22 493 -12 17 -35 39 -52 48 l-30 17 -3 107 c-3 103 -2
107 16 97 30 -16 32 -4 7 57 -13 31 -20 60 -16 64 7 8 530 13 537 5 3 -3 7
-104 9 -226 4 -216 3 -222 -16 -216 -23 8 -24 -2 -3 -43 8 -17 17 -44 20 -59
3 -15 7 -29 8 -31 4 -4 50 122 46 128 -2 3 -11 4 -21 2 -18 -3 -19 10 -21 230
l-3 233 -282 3 c-278 2 -282 2 -293 -19 -7 -11 -9 -33 -5 -47 4 -15 3 -24 0
-20 -4 4 -16 -9 -26 -30 -23 -45 -24 -44 4 -37 22 6 22 5 22 -96 l0 -103 -33
-19 c-52 -30 -59 -56 -52 -187 4 -63 7 -100 8 -81 2 44 8 38 26 -29 8 -30 24
-89 36 -130 24 -82 23 -97 -11 -245 -44 -191 -44 -193 -49 100 l-5 270 -3
-350 c-2 -389 -3 -383 63 -411 l33 -14 -13 -44 c-8 -25 -19 -54 -24 -65 -16
-30 -13 -40 9 -34 20 5 21 2 18 -83 l-3 -89 -122 -3 c-118 -3 -123 -2 -123 18
0 29 -25 35 -56 15 -35 -22 -39 -14 -14 28 l21 35 -24 6 c-24 6 -25 9 -26 101
l-2 94 35 15 c36 15 72 67 62 92 -3 8 -6 216 -6 464 l-2 450 -89 0 -89 0 -1
33 c-3 67 11 99 48 116 35 16 57 14 87 -10 22 -17 26 -28 26 -69 0 -27 5 -52
10 -55 13 -8 13 49 0 94 -10 36 -35 60 -62 61 -28 0 -28 13 -2 86 29 83 28 77
4 69 -19 -6 -20 -1 -22 87 -1 51 -2 106 -3 122 l-1 28 -112 -1 -112 -2 0 30
c0 38 -7 38 -58 1z m-62 -45 c0 -12 -56 -45 -64 -37 -3 3 -6 20 -6 37 0 17 3
34 6 37 8 8 64 -25 64 -37z m110 7 c0 -21 -3 -41 -6 -45 -3 -3 -21 4 -41 15
l-35 21 29 23 c41 34 53 30 53 -14z m218 -121 c3 -110 2 -113 -18 -108 -29 8
-26 -21 5 -35 26 -12 36 -34 10 -24 -8 3 -15 1 -15 -5 0 -5 6 -12 13 -15 8 -3
11 -17 9 -39 -3 -27 -10 -37 -29 -41 -14 -4 -33 -19 -42 -35 -16 -25 -17 -62
-14 -386 2 -197 4 -427 4 -512 0 -168 6 -193 58 -230 27 -20 28 -23 25 -93 -1
-40 -3 -83 -3 -95 -1 -15 -9 -25 -26 -29 -30 -7 -30 -8 -4 -50 23 -39 22 -40
-28 -19 -44 18 -43 18 -43 -1 0 -8 4 -13 9 -10 11 7 71 -13 71 -23 0 -8 -45
-31 -60 -31 -6 0 -10 9 -10 20 0 19 -7 20 -110 20 -81 0 -110 3 -110 13 0 6
11 38 24 70 l24 57 -27 -2 c-26 -3 -26 -2 -26 60 0 73 0 72 40 92 58 30 56 17
52 600 -2 380 -7 541 -15 557 -7 11 -25 27 -42 35 -36 16 -37 33 -6 98 l24 50
-24 0 c-23 0 -24 3 -24 60 0 57 1 60 25 60 29 0 30 2 9 41 -8 17 -14 33 -12
35 2 2 21 -8 41 -22 l37 -25 0 29 c0 15 4 32 10 38 5 5 51 10 102 9 l93 0 3
-114z m-294 64 c4 -14 4 -30 1 -35 -7 -12 -68 -14 -63 -2 35 71 51 81 62 37z
m-497 -61 c-3 -3 -12 -4 -19 -1 -8 3 -5 6 6 6 11 1 17 -2 13 -5z m54 -173 c23
-23 29 -39 29 -70 0 -37 3 -41 24 -41 14 0 37 -5 53 -11 19 -7 29 -7 31 0 5
16 92 14 98 -3 3 -7 6 -317 7 -689 l2 -676 -40 -3 c-38 -3 -40 -5 -41 -35 0
-43 -7 -47 -46 -34 -22 8 -34 8 -36 1 -2 -5 -15 -10 -28 -10 -23 0 -28 9 -25
38 2 16 -14 15 -50 -4 -38 -19 -46 -13 -25 18 21 30 20 38 -4 38 -24 0 -25 15
-5 54 18 35 18 36 0 36 -11 0 -15 13 -15 53 0 53 0 54 39 69 75 30 73 14 73
605 -1 288 -4 528 -8 534 -3 6 -42 9 -94 8 -48 -1 -92 1 -98 5 -15 9 -6 74 14
104 32 49 102 56 145 13z m482 -122 c12 -15 17 -39 17 -80 l0 -59 -85 0 -85 0
0 58 c0 59 17 88 60 105 26 10 74 -2 93 -24z m-468 -41 c-4 -13 -11 -36 -16
-53 -5 -16 -20 -90 -34 -164 -14 -74 -30 -140 -36 -147 -5 -6 -7 -18 -3 -27 3
-8 -2 -44 -10 -79 -9 -34 -27 -121 -42 -193 -14 -71 -27 -132 -29 -134 -7 -6
-10 493 -5 639 l5 135 29 -135 c30 -145 46 -204 52 -197 5 5 -18 124 -50 260
-14 60 -26 111 -26 113 0 2 39 4 86 4 84 0 85 0 79 -22z m1172 -62 c15 -18 23
-40 23 -64 l0 -37 -90 -3 -90 -3 0 46 c0 37 5 51 27 71 36 34 96 29 130 -10z
m-1157 -348 c0 -205 -4 -366 -9 -358 -4 8 -16 59 -26 113 -11 53 -23 97 -28
97 -5 0 -6 -12 -2 -27 4 -16 13 -61 21 -101 8 -40 18 -81 23 -90 4 -9 11 -41
14 -69 l6 -53 -89 0 c-96 0 -103 4 -88 55 4 17 24 106 43 199 20 94 37 172 40
174 2 2 7 -9 10 -24 10 -46 15 -57 21 -51 4 3 -1 40 -11 81 -9 42 -14 80 -10
85 3 6 17 70 31 143 24 131 41 198 50 198 2 0 4 -168 4 -372z m428 127 c-17
-88 -34 -163 -38 -168 -5 -6 -31 96 -77 310 -5 21 -1 22 63 25 38 2 72 1 76
-2 4 -3 -7 -77 -24 -165z m372 158 c0 -5 -7 -26 -14 -48 -8 -22 -16 -56 -19
-75 -9 -60 -36 -193 -41 -197 -2 -3 -7 4 -10 14 -13 45 -66 282 -66 297 0 13
13 16 75 16 41 0 75 -3 75 -7z m-327 -387 c3 -186 2 -335 -2 -330 -9 9 -61
242 -69 304 -2 20 7 89 21 155 14 66 28 142 32 168 3 27 8 47 10 45 1 -1 5
-156 8 -342z m336 7 c0 -186 -2 -333 -4 -328 -2 6 -20 81 -39 167 l-34 157 29
148 c36 182 38 193 44 193 2 0 4 -152 4 -337z m357 295 c-3 -18 -16 -76 -30
-128 -13 -52 -27 -108 -31 -124 -8 -36 -21 -25 -33 29 -6 22 -23 85 -40 140
-16 55 -27 103 -25 108 2 4 40 7 84 7 l81 0 -6 -32z m-487 -128 c12 -52 27
-112 33 -132 11 -38 8 -61 -42 -276 -6 -23 -10 -55 -11 -70 0 -24 -1 -25 -9
-7 -5 11 -9 160 -8 330 0 174 3 297 8 280 4 -16 17 -73 29 -125z m-354 87 c3
-17 18 -85 32 -150 24 -108 26 -124 14 -175 -7 -32 -23 -108 -35 -170 -13 -61
-25 -114 -27 -116 -2 -2 -5 144 -6 325 -2 303 4 380 22 286z m857 -325 c2
-155 0 -282 -3 -282 -4 0 -12 28 -18 63 -7 34 -23 101 -37 149 l-24 87 19 83
c41 178 56 233 58 208 2 -14 4 -152 5 -308z m-1722 53 l0 -55 -110 0 -110 0 0
48 c0 27 3 52 7 55 3 4 53 7 110 7 l103 0 0 -55z m1299 -180 c12 -60 26 -124
31 -141 6 -17 10 -47 10 -67 l0 -37 -75 0 c-41 0 -75 4 -75 8 0 5 13 74 29
153 16 79 32 162 36 184 9 52 16 36 44 -100z m-359 104 c0 -12 16 -90 36 -175
19 -84 33 -158 29 -164 -3 -5 -40 -10 -82 -10 -73 0 -75 1 -70 23 3 12 20 95
39 184 18 90 36 163 41 163 4 0 7 -10 7 -21z m-934 -36 c-3 -21 -5 -100 -5
-175 l-1 -138 -110 0 -110 0 0 168 c0 93 3 172 7 175 3 4 55 7 115 7 l109 0
-5 -37z m1649 -33 c4 -25 20 -92 36 -149 16 -57 26 -107 23 -112 -3 -5 -41 -9
-86 -9 l-80 0 4 28 c3 15 14 61 26 102 11 41 26 102 32 135 7 33 15 64 17 69
8 13 20 -14 28 -64z m-1122 -249 c11 -1 1 -105 -13 -130 -15 -29 -51 -51 -82
-51 -58 0 -100 70 -90 152 3 26 6 27 65 30 55 3 95 3 120 -1z m1187 -57 c0
-47 -44 -103 -82 -104 -51 0 -98 50 -98 105 0 25 0 25 90 25 90 0 90 0 90 -26z
m-1720 -11 c0 -47 -86 -95 -139 -78 -33 10 -81 55 -81 76 0 18 19 21 203 24
11 1 17 -7 17 -22z m1014 -28 c-1 -41 -6 -53 -33 -77 -36 -32 -50 -34 -91 -13
-29 15 -50 62 -50 112 0 21 5 22 78 25 42 2 82 3 87 2 6 0 9 -23 9 -49z m336
20 c0 -46 -17 -80 -47 -94 -35 -16 -49 -14 -78 12 -25 21 -50 91 -39 109 3 4
41 8 85 8 l79 0 0 -35z m-1222 -54 c8 -5 12 -21 10 -37 -3 -26 -7 -29 -38 -29
-32 0 -35 3 -38 32 -2 23 1 32 15 36 29 7 37 7 51 -2z m1146 -277 c21 -8 20
-27 -2 -55 l-19 -22 -16 33 c-21 40 -21 38 1 43 9 3 18 5 19 6 1 0 8 -2 17 -5z
m-454 -93 l0 -69 -61 -4 c-33 -1 -63 -1 -65 1 -2 2 -4 35 -4 73 l0 68 65 0 65
0 0 -69z m-300 6 c0 -19 -3 -36 -6 -40 -7 -6 -74 23 -74 33 0 6 59 38 73 39 4
1 7 -14 7 -32z m832 -2 c7 -34 -5 -39 -44 -19 l-32 16 30 13 c40 18 41 18 46
-10z m-914 -60 c16 -35 16 -35 -23 -35 -37 0 -42 9 -23 40 17 27 32 25 46 -5z
m358 -60 c3 -24 -12 -35 -48 -35 -25 0 -28 4 -28 31 0 29 2 30 37 27 27 -2 37
-8 39 -23z"/>
<path d="M2000 2934 c-21 -24 -1 -68 33 -72 15 -2 27 1 27 7 0 6 -10 10 -22 8
-19 -2 -23 3 -23 28 0 25 4 30 23 28 12 -2 22 2 22 7 0 16 -46 12 -60 -6z"/>
<path d="M2084 2870 c1 -16 6 -28 11 -27 14 5 13 49 -1 54 -7 2 -11 -8 -10
-27z"/>
<path d="M1508 2239 c-22 -12 -24 -62 -3 -79 15 -12 55 -5 55 10 0 5 -12 8
-27 7 -24 -2 -28 2 -28 23 0 21 4 25 28 23 29 -2 37 11 11 21 -19 7 -15 8 -36
-5z"/>
<path d="M1581 2183 c0 -5 4 -17 9 -28 8 -18 9 -17 9 8 1 15 -3 27 -9 27 -5 0
-10 -3 -9 -7z"/>
<path d="M2585 2030 c3 -5 8 -10 11 -10 2 0 4 5 4 10 0 6 -5 10 -11 10 -5 0
-7 -4 -4 -10z"/>
<path d="M780 1965 c0 -44 1 -45 33 -44 29 1 29 2 8 8 -33 9 -39 31 -9 32 20
0 20 1 5 8 -25 9 -23 25 5 33 20 5 18 6 -9 7 -32 1 -33 0 -33 -44z"/>
<path d="M861 1953 c0 -4 4 -17 9 -28 8 -19 9 -19 9 2 1 12 -3 25 -9 28 -5 3
-10 3 -9 -2z"/>
<path d="M5635 3198 c-3 -7 -6 -29 -7 -48 -3 -34 -2 -35 33 -35 32 -1 36 2 36
27 0 15 -4 28 -9 28 -4 0 -8 -4 -8 -10 0 -5 -4 -10 -10 -10 -5 0 -7 13 -3 30
4 24 2 30 -11 30 -9 0 -19 -6 -21 -12z m26 -71 c-13 -13 -31 0 -24 19 4 11 8
12 20 3 9 -8 10 -16 4 -22z"/>
<path d="M5955 3200 c-10 -16 5 -50 21 -50 8 0 14 -5 14 -11 0 -6 -9 -8 -20
-4 -22 7 -28 -10 -7 -18 30 -11 52 29 37 68 -10 25 -34 33 -45 15z m35 -25 c0
-8 -4 -15 -9 -15 -13 0 -22 16 -14 24 11 11 23 6 23 -9z"/>
<path d="M6029 3194 c-18 -22 -7 -69 19 -72 13 -2 25 3 28 12 8 21 -15 49 -33
42 -8 -3 -11 -1 -8 4 8 13 52 13 60 0 8 -13 25 -3 25 14 0 18 -76 18 -91 0z
m31 -49 c0 -8 -4 -15 -9 -15 -13 0 -22 16 -14 24 11 11 23 6 23 -9z"/>
<path d="M6142 3198 c-13 -13 -16 -47 -4 -65 12 -18 62 -21 62 -3 0 5 -10 9
-22 7 -19 -2 -23 3 -23 28 0 25 4 30 23 28 12 -2 22 2 22 7 0 14 -44 12 -58
-2z"/>
<path d="M5267 3193 c-4 -3 -3 -11 2 -17 5 -6 11 -24 14 -41 3 -22 4 -17 6 18
1 44 -6 57 -22 40z"/>
<path d="M5890 3190 c0 -5 4 -10 9 -10 6 0 12 -15 14 -32 3 -29 4 -27 5 10 2
31 -2 42 -13 42 -8 0 -15 -4 -15 -10z"/>
<path d="M5427 3183 c-6 -11 4 -73 12 -73 4 0 5 18 3 40 -4 40 -7 46 -15 33z"/>
<path d="M5360 3171 c0 -6 8 -11 18 -12 12 0 11 -3 -6 -10 -28 -11 -24 -33 7
-37 20 -3 22 0 19 30 -2 22 -9 34 -20 36 -10 2 -18 -1 -18 -7z m30 -35 c0 -3
-4 -8 -10 -11 -5 -3 -10 -1 -10 4 0 6 5 11 10 11 6 0 10 -2 10 -4z"/>
<path d="M5466 3173 c-9 -10 -7 -51 3 -58 5 -3 11 6 13 20 4 32 21 34 30 3 6
-21 6 -21 7 -2 1 11 4 24 8 27 10 10 32 -13 27 -28 -3 -7 0 -16 6 -20 8 -5 10
3 8 26 -3 33 -5 34 -49 36 -26 1 -49 -1 -53 -4z"/>
<path d="M5778 3153 c12 -2 30 -2 40 0 9 3 -1 5 -23 4 -22 0 -30 -2 -17 -4z"/>
<path d="M873 3073 c-15 -6 -18 -83 -3 -83 6 0 10 6 10 14 0 8 8 17 18 19 16
4 16 5 0 6 -22 1 -24 31 -2 31 8 0 12 5 9 10 -7 11 -13 11 -32 3z"/>
<path d="M791 3023 c1 -27 4 -38 6 -25 3 13 12 22 23 22 19 0 34 25 24 41 -3
5 -16 9 -30 9 -22 0 -24 -3 -23 -47z m39 22 c0 -8 -7 -15 -15 -15 -8 0 -15 7
-15 15 0 8 7 15 15 15 8 0 15 -7 15 -15z"/>
<path d="M930 3009 c0 -5 5 -7 10 -4 6 3 10 2 10 -4 0 -5 -4 -13 -10 -16 -14
-9 -12 -25 3 -25 6 0 13 14 14 30 2 21 -2 30 -12 30 -8 0 -15 -5 -15 -11z"/>
<path d="M1654 2933 c-12 -44 31 -83 60 -53 8 9 6 11 -11 6 -16 -5 -25 -1 -33
14 -14 27 4 53 31 45 11 -4 19 -2 19 4 0 6 -13 11 -30 11 -24 0 -31 -5 -36
-27z"/>
<path d="M1743 2880 c0 -16 5 -30 12 -30 14 0 14 52 -1 57 -6 2 -11 -9 -11
-27z"/>
<path d="M2377 2878 c-36 -20 -10 -99 28 -84 23 8 18 23 -7 22 -18 -1 -23 5
-23 24 0 19 5 25 23 24 12 0 22 3 22 7 0 12 -26 17 -43 7z"/>
<path d="M2442 2818 c-17 -17 -15 -25 8 -31 16 -4 20 0 20 19 0 26 -10 30 -28
12z"/>
<path d="M3722 2678 c2 -6 10 -14 16 -16 7 -2 10 2 6 12 -7 18 -28 22 -22 4z"/>
<path d="M3437 2568 c-26 -14 -23 -75 4 -83 12 -4 26 -2 33 5 8 9 7 11 -8 8
-23 -4 -42 23 -32 47 4 11 13 15 26 12 11 -3 20 -2 20 3 0 13 -25 18 -43 8z"/>
<path d="M458 2530 c-2 -23 0 -44 4 -46 4 -3 8 4 8 15 0 13 8 21 23 23 33 5
30 42 -4 46 -25 3 -27 0 -31 -38z m42 21 c0 -12 -20 -25 -27 -18 -7 7 6 27 18
27 5 0 9 -4 9 -9z"/>
<path d="M534 2543 c-4 -14 -2 -33 3 -42 11 -18 63 -28 63 -12 0 6 -10 10 -22
8 -19 -2 -23 3 -23 28 0 25 4 30 23 28 12 -2 22 2 22 7 0 6 -13 10 -30 10 -24
0 -31 -5 -36 -27z"/>
<path d="M3340 2531 c0 -23 5 -41 10 -41 6 0 10 6 10 14 0 7 9 16 21 19 31 8
21 41 -14 45 -25 3 -27 1 -27 -37z m48 17 c-6 -18 -28 -21 -28 -4 0 9 7 16 16
16 9 0 14 -5 12 -12z"/>
<path d="M3508 2514 c6 -3 12 -15 12 -25 0 -11 -4 -17 -10 -14 -5 3 -10 1 -10
-4 0 -6 7 -11 15 -11 8 0 15 9 15 20 0 11 0 23 1 28 0 4 -8 8 -18 9 -10 2 -12
0 -5 -3z"/>
<path d="M4 2501 c3 -4 19 -11 35 -14 48 -10 81 -51 81 -102 0 -24 -4 -55 -10
-69 -10 -27 -56 -56 -90 -56 -11 0 -20 -4 -20 -10 0 -14 25 -12 66 5 l35 14
-3 -42 -3 -42 -43 -1 c-24 -1 -46 -4 -49 -8 -3 -3 110 -7 251 -8 166 -2 256 1
256 7 0 6 -68 10 -187 9 -104 -1 -192 0 -198 2 -5 2 -10 26 -10 52 l1 47 109
2 c68 1 111 6 113 12 2 6 26 11 53 11 l49 0 0 -60 c0 -33 4 -60 10 -60 6 0 10
27 10 60 l0 60 50 0 51 0 -3 58 -3 57 -106 3 c-97 2 -107 5 -112 22 -6 22 -26
25 -154 20 -59 -2 -79 2 -106 19 -34 21 -83 29 -73 12z m317 -63 c2 -13 2 -48
-1 -78 l-5 -55 -91 -2 -91 -2 1 62 c0 34 -3 70 -8 80 -7 16 0 17 92 17 96 0
100 -1 103 -22z m150 -28 l69 0 0 -40 0 -40 -100 0 -100 0 0 46 0 47 31 -7
c17 -3 62 -6 100 -6z"/>
<path d="M628 2485 c2 -14 6 -25 8 -25 2 0 4 11 4 25 0 14 -4 25 -9 25 -4 0
-6 -11 -3 -25z"/>
<path d="M2762 2461 c-44 -43 -53 -80 -33 -133 13 -35 2 -138 -15 -138 -8 0
-14 -4 -14 -9 0 -4 48 -7 108 -6 59 1 224 3 367 6 l260 3 -240 6 -240 5 0 45
0 45 113 3 c63 1 112 7 112 12 0 6 37 10 84 10 65 0 85 3 90 15 6 16 100 22
110 7 11 -18 9 -754 -2 -761 -8 -5 -7 -24 4 -65 18 -69 13 -75 -50 -71 -57 3
-58 4 -51 14 3 5 1 12 -5 16 -5 3 -10 -3 -10 -14 0 -21 -5 -21 -214 -21 -228
0 -246 4 -231 49 8 26 30 29 230 35 88 2 168 7 178 11 44 18 43 80 -2 93 -14
4 -110 6 -213 6 -155 -2 -188 1 -188 12 0 8 -4 14 -10 14 -5 0 -10 -7 -10 -15
0 -9 -6 -15 -12 -14 -7 1 -50 1 -95 0 l-83 -1 0 -465 0 -465 31 0 c27 0 31 -3
26 -20 -6 -23 3 -22 72 6 48 20 71 18 71 -6 0 -14 -7 -20 -22 -20 -12 0 -18
-3 -14 -7 4 -5 12 -8 17 -8 5 0 9 -3 9 -7 0 -5 0 -12 0 -17 0 -5 -21 -9 -47
-8 -81 2 -547 -14 -552 -19 -3 -3 113 -4 257 -2 250 3 263 2 258 -15 -3 -11 0
-16 7 -13 60 25 88 29 104 14 38 -31 78 -40 122 -27 42 12 91 58 91 84 0 7 8
16 18 18 16 4 16 5 0 6 -16 1 -18 13 -18 96 l0 95 190 0 c120 0 190 4 190 10
0 6 -70 10 -190 10 l-190 0 0 30 c0 26 4 30 26 30 15 0 23 4 19 10 -4 6 -15 8
-26 5 -16 -5 -19 -1 -19 24 0 30 2 31 41 31 24 0 38 -4 34 -10 -8 -13 2 -12
49 4 l38 13 -28 11 c-16 5 -37 13 -46 17 -13 5 -18 2 -18 -9 0 -26 -64 -16
-68 11 -2 14 3 23 15 26 10 3 -51 5 -134 6 -96 1 -153 -3 -153 -9 0 -5 7 -10
15 -10 8 0 15 -8 16 -17 0 -10 1 -33 2 -52 2 -26 -2 -35 -17 -39 -19 -5 -19
-6 -2 -12 16 -5 19 -19 20 -108 1 -116 0 -117 -75 -82 -58 26 -73 26 -59 0 9
-18 8 -20 -15 -20 l-25 0 0 445 c0 245 3 445 8 445 4 0 42 2 85 5 71 3 77 2
77 -16 0 -10 5 -19 10 -19 6 0 10 9 10 20 0 19 7 20 193 20 208 0 236 -6 223
-47 -9 -29 -31 -33 -207 -33 -88 0 -170 -5 -188 -11 -41 -14 -55 -40 -39 -73
l11 -26 186 -1 c102 -1 203 -1 224 0 30 2 37 -1 37 -16 1 -17 1 -17 11 0 8 14
22 18 52 17 73 -3 74 -2 85 43 6 23 20 59 31 80 l19 37 -29 0 -29 0 0 375 c0
329 2 375 16 383 11 6 14 20 12 48 l-3 39 -80 3 c-57 2 -82 7 -88 17 -6 11
-29 15 -92 15 -47 0 -85 4 -87 10 -2 6 -58 12 -133 14 -72 3 -153 7 -180 11
-49 6 -52 5 -93 -34z m152 8 c36 -17 59 -71 51 -119 -13 -78 -92 -118 -163
-83 -43 21 -62 53 -62 106 0 92 82 137 174 96z m244 -81 l-3 -83 -92 -3 -92
-3 6 55 c4 42 2 62 -11 80 -9 14 -16 28 -16 31 0 3 47 5 105 5 l106 0 -3 -82z
m182 -3 c0 -63 7 -61 -132 -56 l-38 1 0 55 0 55 85 0 85 0 0 -55z m145 25 c20
-7 26 -16 23 -33 -3 -20 -9 -22 -74 -25 -67 -3 -72 -1 -77 20 -4 12 -1 28 5
35 12 15 86 17 123 3z m-641 -164 c28 0 61 4 74 9 22 7 23 5 20 -26 l-3 -34
-92 -3 -93 -3 0 47 0 47 21 -19 c15 -14 35 -19 73 -18z m271 -1256 l0 -55
-102 -3 -103 -3 0 54 c0 29 3 56 6 60 4 3 50 5 103 4 l96 -2 0 -55z m0 -202
l0 -133 -102 -3 -103 -3 0 135 0 136 103 0 103 0 -1 -132z m0 -158 c4 -6 -9
-26 -28 -45 -28 -28 -43 -35 -73 -35 -53 0 -104 32 -104 65 l0 25 99 0 c58 0
103 -4 106 -10z"/>
<path d="M3220 2350 c0 -5 5 -10 11 -10 5 0 7 5 4 10 -3 6 -8 10 -11 10 -2 0
-4 -4 -4 -10z"/>
<path d="M2967 823 c-4 -3 -7 -26 -7 -50 0 -41 1 -43 31 -43 19 0 28 4 24 11
-4 6 -13 8 -21 5 -8 -3 -14 1 -14 9 0 8 7 15 15 15 8 0 15 5 15 10 0 6 -7 10
-15 10 -20 0 -19 10 3 26 16 12 16 13 -4 14 -11 0 -24 -3 -27 -7z"/>
<path d="M3036 762 c20 -14 24 -41 6 -45 -12 -3 -11 -5 6 -6 18 -1 22 4 22 29
0 24 -4 30 -22 30 -13 0 -18 -4 -12 -8z"/>
<path d="M3730 2365 c0 -43 1 -45 28 -44 26 0 26 1 5 9 -13 5 -23 12 -23 15 0
3 10 10 23 15 16 6 17 9 5 9 -27 1 -31 20 -6 30 23 10 22 10 -4 10 -27 1 -28
-1 -28 -44z"/>
<path d="M3806 2334 c-9 -22 -8 -24 9 -24 8 0 15 9 15 20 0 24 -15 27 -24 4z"/>
<path d="M5540 2222 c0 -14 2 -15 10 -2 7 12 12 12 22 2 15 -15 28 -15 28 1 0
6 -14 13 -30 14 -23 2 -30 -2 -30 -15z"/>
<path d="M5492 2178 c-30 -30 -3 -72 44 -66 34 4 53 31 38 56 -13 21 -64 28
-82 10z m69 -14 c11 -14 10 -18 -6 -30 -10 -8 -22 -14 -25 -14 -3 0 -15 6 -25
14 -16 12 -17 16 -6 30 7 9 21 16 31 16 10 0 24 -7 31 -16z"/>
<path d="M2994 2086 c-10 -42 -1 -71 24 -74 48 -7 71 48 34 81 -26 24 -51 21
-58 -7z m56 -25 c0 -31 -21 -46 -39 -28 -12 12 -15 40 -4 50 3 4 15 7 25 7 13
0 18 -8 18 -29z"/>
<path d="M2861 2100 c-7 -17 -6 -82 1 -86 4 -3 8 4 8 15 0 30 37 28 43 -1 2
-13 5 0 5 27 1 39 -1 45 -8 28 -5 -13 -16 -23 -24 -23 -8 0 -17 10 -19 23 -2
12 -5 20 -6 17z"/>
<path d="M5483 2055 c5 -13 87 -19 87 -7 0 6 -20 12 -45 14 -27 2 -44 -1 -42
-7z"/>
<path d="M2940 2041 c0 -10 30 -24 37 -17 3 3 2 9 -2 15 -8 13 -35 15 -35 2z"/>
<path d="M2945 2010 c-8 -13 -1 -24 14 -19 6 3 7 10 2 18 -6 10 -10 10 -16 1z"/>
<path d="M5515 2010 c-4 -7 1 -9 18 -5 30 8 43 -8 22 -25 -12 -10 -18 -10 -30
0 -9 8 -15 9 -15 2 0 -17 19 -24 46 -18 36 9 30 50 -8 54 -14 2 -29 -2 -33 -8z"/>
<path d="M2938 1943 l182 -3 0 -49 c0 -30 -5 -51 -12 -54 -10 -4 -10 -7 0 -18
6 -7 12 -26 12 -41 l0 -28 -92 -2 c-51 -2 -125 -1 -165 0 -42 2 -74 -1 -78 -7
-4 -7 11 -11 44 -11 52 0 60 -6 39 -29 -11 -11 -9 -12 9 -7 16 5 23 2 26 -11
4 -17 5 -17 6 1 1 12 6 16 16 12 8 -3 15 -1 15 4 0 6 -4 10 -10 10 -5 0 -10 5
-10 10 0 6 41 10 102 10 100 0 101 0 83 -20 -19 -21 -7 -28 13 -8 9 9 12 8 13
-7 0 -11 3 -14 6 -7 2 6 12 12 20 12 13 0 13 3 3 15 -11 13 -3 15 64 15 69 0
92 -9 66 -25 -5 -3 -10 -11 -10 -17 0 -7 4 -7 13 1 9 7 17 7 24 0 6 -6 18 -6
34 0 21 8 22 10 7 16 -26 10 -22 25 7 25 14 0 25 3 25 8 0 4 -57 8 -128 9 -70
1 -128 2 -129 2 -1 1 4 20 12 42 18 49 18 52 6 44 -6 -3 -11 19 -13 52 l-3 58
-190 0 -190 1 183 -3z"/>
<path d="M5539 1918 c-1 -2 -2 -16 -3 -31 -2 -27 27 -57 41 -43 3 3 -2 8 -11
12 -16 6 -16 8 1 26 15 17 15 21 3 28 -15 9 -29 13 -31 8z"/>
<path d="M3340 1845 c0 -43 1 -45 28 -44 26 0 26 1 5 9 -13 5 -23 14 -23 20 0
5 10 10 23 11 l22 0 -22 9 c-13 5 -23 12 -23 15 0 3 10 10 23 15 21 8 21 9 -5
9 -27 1 -28 -1 -28 -44z"/>
<path d="M5493 1844 c-8 -21 13 -42 28 -27 13 13 5 43 -11 43 -6 0 -13 -7 -17
-16z"/>
<path d="M3416 1831 c-4 -5 0 -11 6 -14 10 -3 10 -7 -1 -20 -11 -15 -11 -17 2
-17 16 0 27 26 20 48 -5 14 -19 16 -27 3z"/>
<path d="M5770 1815 c-12 -15 -5 -55 10 -55 5 0 15 -3 23 -6 9 -3 25 4 36 15
18 18 19 25 10 42 -6 11 -13 18 -16 15 -3 -3 -1 -12 6 -19 9 -11 8 -17 -3 -26
-25 -21 -51 -9 -49 22 2 31 0 33 -17 12z"/>
<path d="M5486 1784 c-10 -25 8 -39 51 -39 34 0 38 3 38 25 0 22 -5 25 -41 28
-31 2 -43 -1 -48 -14z m34 -15 c0 -5 -4 -9 -10 -9 -5 0 -10 7 -10 16 0 8 5 12
10 9 6 -3 10 -10 10 -16z m45 12 c7 -12 -12 -24 -25 -16 -11 7 -4 25 10 25 5
0 11 -4 15 -9z"/>
<path d="M5771 1736 c-12 -14 -5 -26 16 -26 15 0 18 26 4 34 -5 3 -14 0 -20
-8z"/>
<path d="M5490 1720 c-14 -9 -7 -40 9 -40 6 0 7 8 4 17 -5 13 -2 15 12 9 11
-4 21 -2 26 5 11 19 30 -1 23 -24 -5 -17 -3 -19 6 -11 23 23 7 49 -31 50 -20
1 -42 -2 -49 -6z"/>
<path d="M5774 1691 c-12 -12 0 -18 31 -15 24 1 35 -2 35 -11 0 -9 -11 -12
-35 -11 -19 2 -35 -1 -35 -5 0 -5 17 -9 39 -9 30 0 40 4 44 20 3 11 0 23 -6
27 -13 8 -66 11 -73 4z"/>
<path d="M534 1665 c-14 -21 -15 -31 -6 -50 20 -43 82 -25 82 24 0 14 -37 51
-50 51 -5 0 -17 -11 -26 -25z m51 -30 c0 -23 -4 -30 -20 -30 -21 0 -31 25 -21
51 11 28 41 12 41 -21z"/>
<path d="M390 1675 c-7 -52 -6 -76 1 -81 5 -3 9 4 9 15 0 14 6 21 20 21 14 0
20 -7 20 -21 0 -11 4 -18 9 -15 10 7 11 86 1 86 -4 0 -10 -9 -13 -20 -7 -27
-25 -25 -37 3 -5 12 -9 18 -10 12z"/>
<path d="M5657 1663 c-2 -5 -5 -27 -5 -49 -2 -45 10 -56 43 -43 17 7 16 8 -7
8 -38 1 -38 31 -1 31 14 0 23 3 19 7 -4 4 -15 8 -23 8 -9 0 -18 6 -20 13 -3 7
5 12 21 12 14 0 26 5 26 10 0 12 -47 14 -53 3z"/>
<path d="M484 1614 c4 -9 1 -23 -5 -30 -9 -11 -8 -14 4 -14 15 0 30 37 21 52
-9 15 -26 8 -20 -8z"/>
<path d="M5538 1623 c-20 -3 -28 -10 -28 -24 0 -11 -7 -19 -17 -19 -9 0 -13
-3 -10 -7 6 -5 75 -8 95 -3 4 1 -6 5 -22 9 -38 8 -40 25 -3 29 15 2 27 8 27
13 0 5 -3 8 -7 8 -5 -1 -20 -4 -35 -6z"/>
<path d="M5800 1623 c-28 -6 -41 -20 -33 -40 7 -19 82 -17 89 2 6 15 -12 46
-25 44 -3 -1 -17 -4 -31 -6z m0 -28 c0 -8 -4 -15 -10 -15 -5 0 -10 7 -10 15 0
8 5 15 10 15 6 0 10 -7 10 -15z m40 0 c0 -8 -4 -15 -10 -15 -5 0 -10 7 -10 15
0 8 5 15 10 15 6 0 10 -7 10 -15z"/>
<path d="M5538 1543 c-21 -2 -38 -8 -38 -13 0 -13 73 -6 78 8 2 7 2 11 0 10
-1 -1 -20 -3 -40 -5z"/>
<path d="M5673 1542 c-37 -4 -45 -22 -10 -22 22 0 56 16 47 22 -3 2 -20 2 -37
0z"/>
<path d="M5770 1526 c0 -8 5 -18 10 -21 6 -3 10 -1 10 4 0 6 14 11 30 11 17 0
30 5 30 10 0 6 -18 10 -40 10 -28 0 -40 -4 -40 -14z"/>
<path d="M5480 1489 c0 -5 5 -7 10 -4 6 3 10 8 10 11 0 2 -4 4 -10 4 -5 0 -10
-5 -10 -11z"/>
<path d="M5528 1493 c12 -2 30 -2 40 0 9 3 -1 5 -23 4 -22 0 -30 -2 -17 -4z"/>
<path d="M5651 1478 c0 -13 3 -17 6 -10 4 10 8 9 17 -4 15 -20 36 -11 36 17 0
14 -7 19 -30 19 -25 0 -30 -4 -29 -22z m49 2 c0 -5 -4 -10 -10 -10 -5 0 -10 5
-10 10 0 6 5 10 10 10 6 0 10 -4 10 -10z"/>
<path d="M3730 1436 c0 -39 3 -44 25 -48 14 -3 25 -1 25 3 0 5 -9 9 -20 9 -28
0 -26 30 3 31 l22 0 -22 9 c-13 5 -23 12 -23 15 0 3 10 10 23 15 21 8 21 9 -5
9 -26 1 -28 -2 -28 -43z"/>
<path d="M5530 1458 l25 -10 -25 -10 c-23 -9 -24 -10 -7 -22 21 -16 22 -26 2
-26 -8 0 -15 -4 -15 -10 0 -14 6 -13 42 6 l32 16 -24 13 -23 13 23 7 c23 7 23
8 5 21 -10 8 -28 14 -39 13 -19 0 -18 -1 4 -11z"/>
<path d="M5813 1435 c0 -22 2 -30 4 -17 2 12 2 30 0 40 -3 9 -5 -1 -4 -23z"/>
<path d="M3540 1430 c0 -5 5 -10 10 -10 6 0 10 5 10 10 0 6 -4 10 -10 10 -5 0
-10 -4 -10 -10z"/>
<path d="M3800 1416 c0 -8 5 -18 11 -22 8 -4 7 -9 -2 -15 -11 -7 -10 -9 3 -9
22 0 32 18 19 34 -6 7 -8 16 -4 19 3 4 -1 7 -10 7 -9 0 -17 -6 -17 -14z"/>
<path d="M5648 1383 c-10 -2 -18 -9 -18 -15 0 -5 7 -7 16 -4 9 3 27 6 40 6 14
0 22 4 19 10 -6 10 -26 11 -57 3z"/>
<path d="M5810 1355 c-7 -9 -8 -15 -2 -15 5 0 12 -21 15 -47 3 -27 7 -59 9
-73 2 -21 -2 -26 -26 -28 -26 -3 -28 -1 -24 22 6 28 -9 36 -19 11 -6 -17 23
-55 42 -55 7 0 23 8 36 19 23 18 23 19 5 46 -14 21 -17 40 -14 77 5 52 -2 67
-22 43z"/>
<path d="M2830 1350 c0 -5 13 -24 28 -41 l29 -32 204 -1 204 -1 3 -34 c2 -19
-2 -37 -8 -41 -9 -6 -9 -16 1 -44 7 -20 16 -36 19 -36 12 0 30 75 20 78 -6 2
-10 21 -10 43 0 38 1 39 35 39 27 0 42 8 64 32 39 44 31 49 -14 9 l-36 -31
-239 0 -240 0 -22 35 c-23 34 -38 45 -38 25z"/>
<path d="M5510 1313 c0 -8 13 -13 36 -13 41 0 38 16 -6 22 -20 3 -30 0 -30 -9z"/>
<path d="M5665 1280 c-3 -5 3 -10 15 -10 12 0 18 5 15 10 -3 6 -10 10 -15 10
-5 0 -12 -4 -15 -10z"/>
<path d="M5510 1270 c0 -5 16 -10 35 -10 19 0 35 5 35 10 0 6 -16 10 -35 10
-19 0 -35 -4 -35 -10z"/>
<path d="M5677 1253 c-11 -10 -8 -63 3 -63 6 0 10 16 10 35 0 36 -2 40 -13 28z"/>
<path d="M5533 1242 c-23 -3 -34 -42 -13 -42 5 0 7 8 4 18 -4 12 0 10 12 -5
22 -30 44 -29 44 1 0 26 -13 34 -47 28z m37 -22 c0 -5 -4 -10 -10 -10 -5 0
-10 5 -10 10 0 6 5 10 10 10 6 0 10 -4 10 -10z"/>
<path d="M5766 1151 c-4 -5 3 -7 14 -4 23 6 26 13 6 13 -8 0 -17 -4 -20 -9z"/>
<path d="M1561 1103 c1 -27 3 -41 6 -32 2 9 15 21 28 27 28 13 33 37 9 46 -37
14 -44 7 -43 -41z m44 17 c-3 -5 -10 -10 -16 -10 -5 0 -9 5 -9 10 0 6 7 10 16
10 8 0 12 -4 9 -10z"/>
<path d="M1639 1129 c-8 -16 -8 -28 0 -45 11 -24 45 -33 56 -14 4 6 -4 9 -17
7 -19 -2 -23 3 -23 28 0 25 4 30 23 28 12 -2 22 2 22 7 0 19 -49 10 -61 -11z"/>
<path d="M5493 1134 c4 -4 21 -7 39 -8 17 -1 33 -7 36 -15 3 -10 -3 -13 -27
-9 -17 2 -31 1 -31 -3 0 -14 21 -21 46 -15 17 5 24 13 24 31 0 23 -4 25 -47
25 -25 0 -43 -3 -40 -6z"/>
<path d="M5657 1133 c-4 -3 -7 -26 -7 -50 0 -42 1 -43 33 -42 29 1 29 2 8 8
-35 9 -39 31 -6 31 15 0 24 4 20 10 -3 6 -15 10 -26 10 -10 0 -19 5 -19 10 0
6 9 10 19 10 11 0 23 5 26 10 7 11 -38 14 -48 3z"/>
<path d="M5795 1098 c-6 -20 -8 -20 -12 -5 -2 9 -9 15 -14 12 -11 -7 7 -45 22
-45 5 0 14 12 19 26 6 14 15 22 21 19 6 -4 8 -13 5 -21 -3 -8 -1 -14 3 -14 15
0 20 27 8 39 -18 18 -44 13 -52 -11z"/>
<path d="M1720 1091 c0 -6 5 -11 12 -11 9 0 9 -3 0 -12 -16 -16 -15 -39 2 -32
16 6 16 56 -1 62 -7 2 -13 -1 -13 -7z"/>
<path d="M558 1079 c-22 -12 -12 -38 19 -50 31 -11 19 -33 -13 -25 -29 8 -31
0 -3 -14 15 -9 24 -8 35 1 21 17 17 38 -11 51 -33 15 -32 32 2 23 23 -5 25 -4
14 9 -15 18 -20 19 -43 5z"/>
<path d="M710 1037 c0 -26 4 -47 9 -47 8 0 3 79 -5 89 -2 2 -4 -17 -4 -42z"/>
<path d="M910 1068 c0 -10 4 -18 8 -18 4 0 16 -13 25 -30 25 -42 37 -37 37 16
0 25 -4 43 -9 40 -5 -3 -7 -15 -4 -26 7 -28 -7 -25 -34 8 -18 21 -22 23 -23
10z"/>
<path d="M1082 1068 c-25 -25 -6 -88 26 -88 35 0 53 41 36 84 -7 19 -45 21
-62 4z m53 -33 c0 -23 -5 -31 -21 -33 -26 -4 -38 22 -23 49 16 30 44 20 44
-16z"/>
<path d="M1183 1035 c0 -27 2 -40 4 -27 6 29 43 31 43 2 0 -11 5 -20 10 -20 6
0 10 20 10 45 0 25 -4 45 -10 45 -5 0 -10 -9 -10 -20 0 -29 -37 -27 -43 3 -2
12 -4 0 -4 -28z"/>
<path d="M634 1034 c-9 -35 18 -63 40 -44 21 16 20 56 0 64 -27 10 -33 7 -40
-20z m42 -5 c10 -17 -13 -36 -27 -22 -12 12 -4 33 11 33 5 0 12 -5 16 -11z"/>
<path d="M1010 1034 c-12 -32 -12 -41 -1 -48 19 -12 41 7 41 34 0 38 -28 48
-40 14z m27 -30 c-3 -3 -12 -4 -19 -1 -8 3 -5 6 6 6 11 1 17 -2 13 -5z"/>
<path d="M5523 1053 c9 -2 25 -2 35 0 9 3 1 5 -18 5 -19 0 -27 -2 -17 -5z"/>
<path d="M745 1026 c0 -34 15 -45 15 -12 0 34 21 30 31 -5 6 -21 7 -21 8 9 1
29 -2 32 -27 32 -23 0 -28 -4 -27 -24z"/>
<path d="M900 1015 c0 -14 5 -25 10 -25 6 0 10 11 10 25 0 14 -4 25 -10 25 -5
0 -10 -11 -10 -25z"/>
<path d="M5763 1024 c-3 -8 -1 -20 6 -27 8 -8 11 -5 11 11 0 19 3 20 26 12 38
-15 53 -11 24 5 -33 19 -59 19 -67 -1z"/>
<path d="M5515 1020 c3 -5 17 -10 31 -10 13 0 24 -4 24 -10 0 -5 -13 -10 -30
-10 -16 0 -30 -5 -30 -11 0 -6 14 -9 33 -7 27 2 33 8 35 31 3 25 1 27 -33 27
-22 0 -34 -4 -30 -10z"/>
<path d="M5640 1008 c0 -4 16 -8 35 -8 19 0 35 4 35 9 0 5 -16 9 -35 8 -19 -1
-35 -5 -35 -9z"/>
<path d="M5657 974 c-4 -4 -7 -16 -7 -26 0 -13 8 -18 31 -18 26 0 30 3 27 23
-3 22 -36 36 -51 21z"/>
<path d="M5778 959 c-10 -7 -10 -11 0 -21 8 -8 12 -9 12 -1 0 7 15 13 33 15
l32 3 -32 6 c-18 3 -38 2 -45 -2z"/>
<path d="M5533 953 c-16 -3 -23 -11 -23 -28 0 -29 14 -39 46 -31 30 8 32 22 2
21 -43 0 -34 20 10 23 23 2 40 7 37 13 -6 9 -31 10 -72 2z"/>
<path d="M4380 867 c0 -25 5 -49 11 -52 7 -5 8 8 3 41 -9 64 -14 68 -14 11z"/>
<path d="M5812 870 c0 -19 2 -27 5 -17 2 9 2 25 0 35 -3 9 -5 1 -5 -18z"/>
<path d="M605 870 c-3 -5 -1 -10 4 -10 6 0 11 5 11 10 0 6 -2 10 -4 10 -3 0
-8 -4 -11 -10z"/>
<path d="M5515 870 c-4 -6 8 -10 30 -10 22 0 34 4 30 10 -3 6 -17 10 -30 10
-13 0 -27 -4 -30 -10z"/>
<path d="M5651 858 c-7 -17 -10 -19 -10 -5 -1 9 -6 17 -12 17 -20 0 -4 -35 19
-38 17 -3 22 2 22 18 0 13 5 20 13 17 6 -2 11 -11 9 -21 -2 -9 2 -16 8 -16 6
0 10 10 8 23 -4 32 -45 36 -57 5z"/>
<path d="M5490 831 c0 -6 17 -7 38 -4 51 8 53 13 4 13 -23 0 -42 -4 -42 -9z"/>
<path d="M4117 740 c-4 -14 -6 -36 -6 -50 1 -18 4 -14 10 14 10 44 6 75 -4 36z"/>
<path d="M2311 730 c0 -14 -2 -35 -6 -47 -5 -15 -3 -23 4 -23 6 0 11 12 11 26
0 22 2 25 15 14 22 -18 19 4 -5 31 l-19 24 0 -25z"/>
<path d="M2400 745 c-3 -5 -3 -28 1 -50 3 -22 7 -32 8 -22 0 9 3 17 5 17 2 0
11 3 20 6 12 4 16 0 16 -15 0 -12 3 -21 8 -21 4 0 7 18 7 40 0 22 -3 40 -7 40
-5 0 -8 -7 -8 -15 0 -25 -38 -18 -42 8 -2 12 -5 18 -8 12z"/>
<path d="M4394 723 c3 -16 10 -82 16 -148 14 -146 32 -241 25 -125 -11 156
-28 300 -37 300 -5 0 -7 -12 -4 -27z"/>
<path d="M2357 708 c-2 -18 -2 -37 1 -42 7 -12 20 21 21 52 1 34 -16 26 -22
-10z"/>
<path d="M2160 696 c0 -14 5 -28 10 -31 6 -4 10 7 10 24 0 17 -4 31 -10 31 -5
0 -10 -11 -10 -24z"/>
<path d="M2207 713 c-14 -13 -7 -54 11 -60 9 -4 20 -11 24 -17 4 -6 8 10 8 37
0 39 -3 47 -18 47 -10 0 -22 -3 -25 -7z m29 -39 c-5 -13 -10 -14 -18 -6 -6 6
-8 18 -4 28 5 13 10 14 18 6 6 -6 8 -18 4 -28z"/>
<path d="M2132 685 c0 -16 2 -22 5 -12 2 9 2 23 0 30 -3 6 -5 -1 -5 -18z"/>
<path d="M2485 691 c-3 -6 -1 -11 4 -11 15 0 14 -27 -1 -33 -7 -2 -10 -8 -6
-12 15 -16 37 4 35 31 -2 29 -20 43 -32 25z"/>
<path d="M3712 678 c-30 -30 -3 -82 40 -76 25 3 33 26 24 64 -7 26 -43 33 -64
12z m48 -13 c17 -20 8 -50 -15 -50 -20 0 -31 25 -21 51 7 18 20 18 36 -1z"/>
<path d="M3923 663 c-22 -8 -15 -53 10 -63 l22 -9 -24 0 c-13 -1 -21 -4 -18
-8 4 -3 -2 -12 -13 -20 -23 -16 -27 -65 -6 -82 21 -18 73 -3 80 24 3 13 9 31
12 42 5 17 4 17 -10 -1 -9 -11 -16 -27 -16 -36 0 -22 -56 -25 -64 -4 -11 27 5
46 33 39 21 -5 23 -4 14 6 -10 10 -9 15 3 23 8 6 17 27 20 47 5 30 3 37 -12
41 -11 3 -25 3 -31 1z m27 -27 c0 -8 -4 -17 -9 -21 -12 -7 -24 12 -16 25 9 15
25 12 25 -4z"/>
<path d="M3996 661 c-4 -5 2 -12 11 -14 17 -4 17 -5 1 -6 -27 -2 -24 -41 3
-41 17 0 20 5 17 32 -3 31 -21 48 -32 29z m24 -35 c0 -3 -4 -8 -10 -11 -5 -3
-10 -1 -10 4 0 6 5 11 10 11 6 0 10 -2 10 -4z"/>
<path d="M4056 655 c-3 -8 2 -19 12 -24 16 -10 16 -10 -1 -11 -10 0 -15 -4
-12 -10 10 -15 35 -12 42 6 3 9 0 20 -8 25 -11 7 -11 9 -1 9 7 0 10 5 7 10 -9
15 -32 12 -39 -5z"/>
<path d="M3804 585 c1 -36 5 -55 13 -55 17 0 26 17 13 25 -6 4 -9 23 -8 42 2
20 -2 38 -7 40 -7 2 -11 -18 -11 -52z"/>
<path d="M3851 604 c0 -11 3 -14 6 -6 3 7 2 16 -1 19 -3 4 -6 -2 -5 -13z"/>
<path d="M3610 549 c-10 -6 -11 -9 -2 -9 7 0 12 -14 12 -35 0 -19 5 -35 10
-35 12 0 14 77 2 84 -4 2 -14 1 -22 -5z"/>
<path d="M3676 548 c-17 -56 -5 -87 29 -74 23 9 16 80 -8 84 -9 2 -19 -2 -21
-10z m29 -8 c3 -5 -1 -10 -10 -10 -9 0 -13 5 -10 10 3 6 8 10 10 10 2 0 7 -4
10 -10z m3 -41 c-2 -6 -8 -10 -13 -10 -5 0 -11 4 -13 10 -2 6 4 11 13 11 9 0
15 -5 13 -11z"/>
<path d="M3745 551 c-4 -7 0 -8 11 -4 13 5 15 2 10 -15 -4 -11 -2 -23 4 -27
15 -9 1 -27 -16 -21 -8 3 -14 1 -14 -5 0 -6 10 -9 23 -7 19 3 22 9 22 43 0 29
-4 41 -17 43 -9 2 -19 -2 -23 -7z"/>
<path d="M4005 550 c-3 -5 -2 -10 4 -10 5 0 12 -15 14 -32 3 -29 4 -27 5 10 2
39 -9 55 -23 32z"/>
<path d="M4168 545 c-7 -7 3 -65 11 -65 4 0 7 16 8 35 1 32 -6 43 -19 30z"/>
<path d="M4228 542 c-12 -2 -18 -13 -18 -33 0 -16 4 -29 10 -29 5 0 9 10 7 21
-1 12 4 24 11 26 7 3 12 -5 12 -21 0 -14 5 -26 10 -26 6 0 10 12 10 26 0 32
22 27 31 -7 6 -22 7 -21 8 7 1 29 -2 32 -31 36 -18 2 -41 2 -50 0z"/>
<path d="M4100 531 c0 -6 8 -8 18 -5 16 5 16 5 0 -6 -32 -20 -18 -57 17 -44
25 10 16 58 -12 62 -13 2 -23 -1 -23 -7z"/>
<path d="M4690 515 c-5 -14 -13 -38 -17 -53 -6 -25 -6 -26 11 -9 21 21 35 22
42 2 4 -8 10 -13 14 -10 5 3 2 18 -6 33 -7 15 -14 32 -14 39 0 24 -20 23 -30
-2z m24 -20 c3 -8 1 -15 -4 -15 -6 0 -10 7 -10 15 0 8 2 15 4 15 2 0 6 -7 10
-15z"/>
<path d="M4840 520 c0 -5 9 -10 20 -10 11 0 20 5 20 10 0 6 -9 10 -20 10 -11
0 -20 -4 -20 -10z"/>
<path d="M5000 482 c0 -23 4 -42 8 -42 10 0 9 66 -1 76 -4 4 -7 -11 -7 -34z"/>
<path d="M3518 503 c12 -2 30 -2 40 0 9 3 -1 5 -23 4 -22 0 -30 -2 -17 -4z"/>
<path d="M4767 503 c-4 -3 -6 -20 -6 -37 1 -21 3 -25 6 -11 3 11 9 24 14 30
17 18 4 36 -14 18z"/>
<path d="M4936 501 c-4 -5 2 -12 11 -14 17 -4 17 -5 0 -6 -27 -2 -17 -35 11
-39 21 -3 23 0 20 30 -3 32 -29 51 -42 29z"/>
<path d="M5041 472 c2 -30 3 -32 6 -9 2 15 10 27 18 27 8 0 16 -12 18 -27 l4
-28 2 28 c0 16 7 27 15 27 8 0 17 -12 19 -27 4 -21 4 -20 3 7 -1 33 -3 34 -43
37 l-43 3 1 -38z"/>
<path d="M4840 490 c0 -6 8 -10 18 -8 10 2 17 -3 17 -12 0 -9 -7 -14 -17 -12
-10 2 -18 -2 -18 -8 0 -6 10 -10 23 -8 16 2 22 10 22 28 0 18 -6 26 -22 28
-13 2 -23 -2 -23 -8z"/>
<path d="M4692 372 c1 -40 33 -41 36 -1 2 23 -2 29 -17 29 -15 0 -19 -7 -19
-28z"/>
<path d="M5000 390 c0 -5 9 -10 19 -10 19 0 19 -2 5 -35 -8 -19 -11 -35 -6
-35 4 0 14 16 21 36 11 30 11 38 0 45 -19 12 -39 11 -39 -1z"/>
<path d="M5077 393 c-15 -15 -7 -43 13 -43 27 0 25 -28 -2 -33 -20 -4 -19 -4
5 -6 22 -1 27 3 27 23 0 16 -8 26 -22 31 l-23 8 23 4 c12 2 20 9 17 14 -7 11
-29 12 -38 2z"/>
<path d="M5135 391 c-3 -6 -1 -11 5 -11 6 0 8 -5 4 -11 -4 -7 -1 -10 7 -7 17
6 19 30 2 35 -6 2 -14 -1 -18 -6z"/>
<path d="M5186 385 c-17 -46 6 -90 42 -78 20 8 14 20 -10 19 -17 -1 -24 5 -26
23 -4 29 17 45 37 28 11 -10 13 -9 9 3 -7 21 -44 25 -52 5z"/>
<path d="M4945 380 c-3 -5 -1 -10 4 -10 6 0 11 -13 11 -30 0 -16 5 -30 11 -30
7 0 9 9 5 23 -3 12 -6 30 -6 40 0 19 -15 23 -25 7z"/>
<path d="M4738 344 c-10 -20 -17 -24 -37 -19 -20 5 -22 4 -13 -8 7 -8 23 -12
39 -10 23 4 28 10 30 34 3 36 -4 37 -19 3z"/>
<path d="M4833 343 c9 -2 25 -2 35 0 9 3 1 5 -18 5 -19 0 -27 -2 -17 -5z"/>
<path d="M4070 319 c0 -6 9 -8 20 -4 27 8 26 -12 -1 -41 l-21 -22 22 -7 c24
-8 41 2 22 14 -9 5 -9 11 2 26 8 11 12 25 9 32 -6 16 -53 18 -53 2z"/>
<path d="M4147 324 c-13 -13 -7 -61 8 -74 23 -19 47 6 43 44 -2 22 -9 32 -23
34 -12 2 -24 0 -28 -4z m37 -19 c7 -18 -2 -45 -15 -45 -5 0 -12 7 -15 15 -7
18 2 45 15 45 5 0 11 -7 15 -15z"/>
<path d="M4217 324 c-13 -13 -7 -61 8 -74 23 -19 47 6 43 44 -2 22 -9 32 -23
34 -12 2 -24 0 -28 -4z m33 -34 c0 -30 -13 -40 -25 -20 -8 13 4 50 16 50 5 0
9 -13 9 -30z"/>
<path d="M4389 313 c-3 -18 3 -59 10 -65 3 -4 6 10 6 32 0 22 -3 40 -7 40 -5
0 -8 -3 -9 -7z"/>
<path d="M3863 296 c3 -7 1 -18 -5 -24 -12 -12 -2 -32 16 -32 25 0 39 27 26
49 -12 23 -45 29 -37 7z"/>
<path d="M3920 286 c0 -14 5 -28 10 -31 6 -4 10 7 10 24 0 17 -4 31 -10 31 -5
0 -10 -11 -10 -24z"/>
<path d="M3960 279 c0 -18 4 -28 10 -24 6 4 8 10 5 15 -3 5 -1 11 5 15 15 9
12 25 -5 25 -10 0 -15 -10 -15 -31z"/>
<path d="M4320 300 c0 -7 7 -10 15 -6 8 3 15 1 15 -4 0 -6 -7 -10 -15 -10 -9
0 -15 -9 -15 -21 0 -15 5 -20 23 -17 17 2 22 10 22 33 0 23 -5 31 -22 33 -13
2 -23 -2 -23 -8z"/>
<path d="M4430 280 c0 -19 4 -29 10 -25 6 4 9 14 8 22 -2 9 3 18 10 20 7 3 12
-5 12 -21 0 -14 5 -26 10 -26 6 0 10 11 10 25 0 14 5 25 10 25 6 0 10 -11 10
-25 0 -14 5 -25 11 -25 6 0 9 12 7 28 -3 25 -7 27 -50 30 -48 3 -48 3 -48 -28z"/>
<path d="M4011 244 c0 -11 3 -14 6 -6 3 7 2 16 -1 19 -3 4 -6 -2 -5 -13z"/>
<path d="M3970 196 c0 -7 -3 -27 -6 -43 -7 -33 9 -46 45 -36 15 4 21 13 21 32
0 20 -2 23 -10 11 -10 -16 -13 -8 -10 28 1 16 -4 22 -19 22 -12 0 -21 -6 -21
-14z m27 -62 c-9 -9 -28 6 -21 18 4 6 10 6 17 -1 6 -6 8 -13 4 -17z"/>
<path d="M4252 198 c-19 -19 -15 -66 6 -77 23 -12 42 3 42 35 0 17 5 21 19 17
23 -6 33 8 21 27 -8 12 -13 13 -29 3 -13 -8 -22 -9 -26 -3 -8 13 -18 13 -33
-2z m31 -27 c6 -24 -7 -46 -22 -37 -12 8 -15 39 -4 49 11 12 21 8 26 -12z"/>
<path d="M4364 196 c-3 -8 -4 -27 -2 -43 2 -21 9 -29 27 -31 13 -2 28 1 34 7
7 7 1 10 -19 8 -26 -2 -29 1 -29 28 0 27 3 30 28 27 18 -2 26 1 22 7 -9 16
-55 13 -61 -3z"/>
<path d="M4105 190 c-3 -5 0 -10 8 -10 9 0 12 -9 9 -30 -3 -18 0 -30 7 -30 6
0 11 17 11 40 0 28 -4 40 -14 40 -8 0 -18 -4 -21 -10z"/>
<path d="M4181 171 l-21 -29 29 -10 c34 -12 39 -5 33 40 -5 36 -15 35 -41 -1z
m24 -11 c3 -5 -1 -10 -10 -10 -9 0 -13 5 -10 10 3 6 8 10 10 10 2 0 7 -4 10
-10z"/>
<path d="M4055 150 c3 -5 10 -10 16 -10 5 0 9 5 9 10 0 6 -7 10 -16 10 -8 0
-12 -4 -9 -10z"/>
</g>
</svg>
